# 3DBuildingModelingEngine JSON to OBJ
# Units: metres
o room_layout
g floor
v 0.000000 -0.050000 0.000000
v 12.050000 -0.050000 0.000000
v 12.050000 -0.050000 11.970000
v 0.000000 -0.050000 11.970000
v 0.000000 0.000000 0.000000
v 12.050000 0.000000 0.000000
v 12.050000 0.000000 11.970000
v 0.000000 0.000000 11.970000
f 1 4 3 2
f 5 6 7 8
f 1 2 6 5
f 2 3 7 6
f 3 4 8 7
f 4 1 5 8
g wall_1
v 0.390000 0.000000 11.470000
v 2.320000 0.000000 11.470000
v 2.320000 0.000000 11.970000
v 0.390000 0.000000 11.970000
v 0.390000 2.800000 11.470000
v 2.320000 2.800000 11.470000
v 2.320000 2.800000 11.970000
v 0.390000 2.800000 11.970000
f 9 12 11 10
f 13 14 15 16
f 9 10 14 13
f 10 11 15 14
f 11 12 16 15
f 12 9 13 16
g wall_2
v 4.400000 0.000000 8.805000
v 4.400000 0.000000 6.055000
v 4.900000 0.000000 6.055000
v 4.900000 0.000000 8.805000
v 4.400000 2.800000 8.805000
v 4.400000 2.800000 6.055000
v 4.900000 2.800000 6.055000
v 4.900000 2.800000 8.805000
f 17 20 19 18
f 21 22 23 24
f 17 18 22 21
f 18 19 23 22
f 19 20 24 23
f 20 17 21 24
g wall_3
v 1.580000 0.000000 6.980000
v 2.530000 0.000000 6.980000
v 2.530000 0.000000 7.480000
v 1.580000 0.000000 7.480000
v 1.580000 2.800000 6.980000
v 2.530000 2.800000 6.980000
v 2.530000 2.800000 7.480000
v 1.580000 2.800000 7.480000
f 25 28 27 26
f 29 30 31 32
f 25 26 30 29
f 26 27 31 30
f 27 28 32 31
f 28 25 29 32
g wall_4
v 1.160000 0.000000 8.535000
v 1.160000 0.000000 3.655000
v 1.660000 0.000000 3.655000
v 1.660000 0.000000 8.535000
v 1.160000 2.800000 8.535000
v 1.160000 2.800000 3.655000
v 1.660000 2.800000 3.655000
v 1.660000 2.800000 8.535000
f 33 36 35 34
f 37 38 39 40
f 33 34 38 37
f 34 35 39 38
f 35 36 40 39
f 36 33 37 40
g wall_5
v 5.460000 0.000000 10.050000
v 11.690000 0.000000 10.050000
v 11.690000 0.000000 10.550000
v 5.460000 0.000000 10.550000
v 5.460000 2.800000 10.050000
v 11.690000 2.800000 10.050000
v 11.690000 2.800000 10.550000
v 5.460000 2.800000 10.550000
f 41 44 43 42
f 45 46 47 48
f 41 42 46 45
f 42 43 47 46
f 43 44 48 47
f 44 41 45 48
g wall_6
v 6.760000 0.000000 6.750000
v 11.730000 0.000000 6.750000
v 11.730000 0.000000 7.250000
v 6.760000 0.000000 7.250000
v 6.760000 2.800000 6.750000
v 11.730000 2.800000 6.750000
v 11.730000 2.800000 7.250000
v 6.760000 2.800000 7.250000
f 49 52 51 50
f 53 54 55 56
f 49 50 54 53
f 50 51 55 54
f 51 52 56 55
f 52 49 53 56
g wall_7
v 0.690000 0.000000 1.320000
v 2.810000 0.000000 1.320000
v 2.810000 0.000000 1.820000
v 0.690000 0.000000 1.820000
v 0.690000 2.800000 1.320000
v 2.810000 2.800000 1.320000
v 2.810000 2.800000 1.820000
v 0.690000 2.800000 1.820000
f 57 60 59 58
f 61 62 63 64
f 57 58 62 61
f 58 59 63 62
f 59 60 64 63
f 60 57 61 64
g wall_8
v 3.980000 0.000000 0.000000
v 11.800000 0.000000 0.000000
v 11.800000 0.000000 0.500000
v 3.980000 0.000000 0.500000
v 3.980000 2.800000 0.000000
v 11.800000 2.800000 0.000000
v 11.800000 2.800000 0.500000
v 3.980000 2.800000 0.500000
f 65 68 67 66
f 69 70 71 72
f 65 66 70 69
f 66 67 71 70
f 67 68 72 71
f 68 65 69 72
g wall_9
v 2.960000 0.000000 4.445000
v 2.960000 0.000000 2.925000
v 3.460000 0.000000 2.925000
v 3.460000 0.000000 4.445000
v 2.960000 2.800000 4.445000
v 2.960000 2.800000 2.925000
v 3.460000 2.800000 2.925000
v 3.460000 2.800000 4.445000
f 73 76 75 74
f 77 78 79 80
f 73 74 78 77
f 74 75 79 78
f 75 76 80 79
f 76 73 77 80
g door_lintel_1_part_0
v 1.817562 2.100000 11.434382
v 0.397562 2.100000 11.534382
v 0.362438 2.100000 11.035618
v 1.782438 2.100000 10.935618
v 1.817562 2.800000 11.434382
v 0.397562 2.800000 11.534382
v 0.362438 2.800000 11.035618
v 1.782438 2.800000 10.935618
f 81 84 83 82
f 85 86 87 88
f 81 82 86 85
f 82 83 87 86
f 83 84 88 87
f 84 81 85 88
g door_lintel_2_part_0
v 1.789384 2.100000 8.567465
v 1.879384 2.100000 9.847465
v 1.380616 2.100000 9.882535
v 1.290616 2.100000 8.602535
v 1.789384 2.800000 8.567465
v 1.879384 2.800000 9.847465
v 1.380616 2.800000 9.882535
v 1.290616 2.800000 8.602535
f 89 92 91 90
f 93 94 95 96
f 89 90 94 93
f 90 91 95 94
f 91 92 96 95
f 92 89 93 96
g door_lintel_3_part_0
v 5.852904 2.100000 8.605858
v 6.132904 2.100000 9.755858
v 5.647096 2.100000 9.874142
v 5.367096 2.100000 8.724142
v 5.852904 2.800000 8.605858
v 6.132904 2.800000 9.755858
v 5.647096 2.800000 9.874142
v 5.367096 2.800000 8.724142
f 97 100 99 98
f 101 102 103 104
f 97 98 102 101
f 98 99 103 102
f 99 100 104 103
f 100 97 101 104
g door_lintel_4_part_0
v 3.619174 2.100000 7.374264
v 2.579174 2.100000 7.454264
v 2.540826 2.100000 6.955736
v 3.580826 2.100000 6.875736
v 3.619174 2.800000 7.374264
v 2.579174 2.800000 7.454264
v 2.540826 2.800000 6.955736
v 3.580826 2.800000 6.875736
f 105 108 107 106
f 109 110 111 112
f 105 106 110 109
f 106 107 111 110
f 107 108 112 111
f 108 105 109 112
g ocr_sink_1
v 6.542482 0.000000 9.293936
v 8.031362 0.000000 9.111624
v 8.122518 0.000000 9.856064
v 6.633638 0.000000 10.038376
v 6.542482 0.800000 9.293936
v 8.031362 0.800000 9.111624
v 8.122518 0.800000 9.856064
v 6.633638 0.800000 10.038376
f 113 116 115 114
f 117 118 119 120
f 113 114 118 117
f 114 115 119 118
f 115 116 120 119
f 116 113 117 120
g ocr_sink_2
v 8.273934 0.000000 8.930779
v 9.060820 0.000000 8.786516
v 9.196066 0.000000 9.524221
v 8.409180 0.000000 9.668484
v 8.273934 0.800000 8.930779
v 9.060820 0.800000 8.786516
v 9.196066 0.800000 9.524221
v 8.409180 0.800000 9.668484
f 121 124 123 122
f 125 126 127 128
f 121 122 126 125
f 122 123 127 126
f 123 124 128 127
f 124 121 125 128
g ocr_shelf_3
v 9.788545 0.000000 8.728185
v 10.962136 0.000000 8.477819
v 11.066455 0.000000 8.966815
v 9.892864 0.000000 9.217181
v 9.788545 1.800000 8.728185
v 10.962136 1.800000 8.477819
v 11.066455 1.800000 8.966815
v 9.892864 1.800000 9.217181
f 129 132 131 130
f 133 134 135 136
f 129 130 134 133
f 130 131 135 134
f 131 132 136 135
f 132 129 133 136
g ocr_oven_4
v 3.653449 0.000000 6.221632
v 4.876335 0.000000 6.149697
v 4.921551 0.000000 6.918368
v 3.698665 0.000000 6.990303
v 3.653449 1.530000 6.221632
v 4.876335 1.530000 6.149697
v 4.921551 1.530000 6.918368
v 3.698665 1.530000 6.990303
f 137 140 139 138
f 141 142 143 144
f 137 138 142 141
f 138 139 143 142
f 139 140 144 143
f 140 137 141 144
g ocr_refrigerator_5
v 7.545101 0.000000 5.674714
v 8.708302 0.000000 5.379818
v 8.904899 0.000000 6.155286
v 7.741698 0.000000 6.450182
v 7.545101 1.800000 5.674714
v 8.708302 1.800000 5.379818
v 8.904899 1.800000 6.155286
v 7.741698 1.800000 6.450182
f 145 148 147 146
f 149 150 151 152
f 145 146 150 149
f 146 147 151 150
f 147 148 152 151
f 148 145 149 152
g ocr_refrigerator_6
v 10.475058 0.000000 4.735709
v 11.648939 0.000000 4.486704
v 11.814942 0.000000 5.269291
v 10.641061 0.000000 5.518296
v 10.475058 1.800000 4.735709
v 11.648939 1.800000 4.486704
v 11.814942 1.800000 5.269291
v 10.641061 1.800000 5.518296
f 153 156 155 154
f 157 158 159 160
f 153 154 158 157
f 154 155 159 158
f 155 156 160 159
f 156 153 157 160
g ocr_warmer_7
v 6.378841 0.000000 4.585637
v 7.531518 0.000000 4.251968
v 7.726159 0.000000 4.924363
v 6.573482 0.000000 5.258032
v 6.378841 0.850000 4.585637
v 7.531518 0.850000 4.251968
v 7.726159 0.850000 4.924363
v 6.573482 0.850000 5.258032
f 161 164 163 162
f 165 166 167 168
f 161 162 166 165
f 162 163 167 166
f 163 164 168 167
f 164 161 165 168
g ocr_stove_8
v 3.441594 0.000000 3.993390
v 4.624720 0.000000 3.792860
v 4.758406 0.000000 4.581610
v 3.575280 0.000000 4.782140
v 3.441594 0.850000 3.993390
v 4.624720 0.850000 3.792860
v 4.758406 0.850000 4.581610
v 3.575280 0.850000 4.782140
f 169 172 171 170
f 173 174 175 176
f 169 170 174 173
f 170 171 175 174
f 171 172 176 175
f 172 169 173 176
g ocr_warmer_9
v 8.274824 0.000000 4.140624
v 10.096541 0.000000 3.600856
v 10.210176 0.000000 3.984376
v 8.388459 0.000000 4.524144
v 8.274824 0.400000 4.140624
v 10.096541 0.400000 3.600856
v 10.210176 0.400000 3.984376
v 8.388459 0.400000 4.524144
f 177 180 179 178
f 181 182 183 184
f 177 178 182 181
f 178 179 183 182
f 179 180 184 183
f 180 177 181 184
g ocr_shelf_10
v 8.563341 0.000000 3.291202
v 9.730521 0.000000 3.012473
v 9.846659 0.000000 3.498798
v 8.679479 0.000000 3.777527
v 8.563341 1.800000 3.291202
v 9.730521 1.800000 3.012473
v 9.846659 1.800000 3.498798
v 8.679479 1.800000 3.777527
f 185 188 187 186
f 189 190 191 192
f 185 186 190 189
f 186 187 191 190
f 187 188 192 191
f 188 185 189 192
g ocr_warmer_11
v 10.747473 0.000000 3.181294
v 11.917786 0.000000 2.916023
v 12.072527 0.000000 3.598706
v 10.902214 0.000000 3.863977
v 10.747473 0.850000 3.181294
v 11.917786 0.850000 2.916023
v 12.072527 0.850000 3.598706
v 10.902214 0.850000 3.863977
f 193 196 195 194
f 197 198 199 200
f 193 194 198 197
f 194 195 199 198
f 195 196 200 199
f 196 193 197 200
g ocr_refrigerator_12
v 0.120000 0.000000 2.085000
v 1.340000 0.000000 2.085000
v 1.340000 0.000000 2.845000
v 0.120000 0.000000 2.845000
v 0.120000 1.950000 2.085000
v 1.340000 1.950000 2.085000
v 1.340000 1.950000 2.845000
v 0.120000 1.950000 2.845000
f 201 204 203 202
f 205 206 207 208
f 201 202 206 205
f 202 203 207 206
f 203 204 208 207
f 204 201 205 208
g ocr_refrigerator_13
v 1.380425 0.000000 2.137489
v 2.575232 0.000000 2.025973
v 2.649575 0.000000 2.822511
v 1.454768 0.000000 2.934027
v 1.380425 1.800000 2.137489
v 2.575232 1.800000 2.025973
v 2.649575 1.800000 2.822511
v 1.454768 1.800000 2.934027
f 209 212 211 210
f 213 214 215 216
f 209 210 214 213
f 210 211 215 214
f 211 212 216 215
f 212 209 213 216
g ocr_stove_14
v 8.128866 0.000000 2.113531
v 9.279869 0.000000 1.774133
v 9.506134 0.000000 2.541469
v 8.355131 0.000000 2.880867
v 8.128866 0.850000 2.113531
v 9.279869 0.850000 1.774133
v 9.506134 0.850000 2.541469
v 8.355131 0.850000 2.880867
f 217 220 219 218
f 221 222 223 224
f 217 218 222 221
f 218 219 223 222
f 219 220 224 223
f 220 217 221 224
g ocr_stove_15
v 10.091843 0.000000 1.479140
v 11.250854 0.000000 1.168186
v 11.458157 0.000000 1.940860
v 10.299146 0.000000 2.251814
v 10.091843 0.850000 1.479140
v 11.250854 0.850000 1.168186
v 11.458157 0.850000 1.940860
v 10.299146 0.850000 2.251814
f 225 228 227 226
f 229 230 231 232
f 225 226 230 229
f 226 227 231 230
f 227 228 232 231
f 228 225 229 232
