# 3DBuildingModelingEngine JSON to OBJ
# Units: metres
o room_layout
g floor
v 0.000000 -0.050000 0.000000
v 9.430000 -0.050000 0.000000
v 9.430000 -0.050000 11.295000
v 0.000000 -0.050000 11.295000
v 0.000000 0.000000 0.000000
v 9.430000 0.000000 0.000000
v 9.430000 0.000000 11.295000
v 0.000000 0.000000 11.295000
f 1 4 3 2
f 5 6 7 8
f 1 2 6 5
f 2 3 7 6
f 3 4 8 7
f 4 1 5 8
g wall_1
v 0.090000 0.000000 6.130000
v 0.090000 0.000000 3.670000
v 0.230000 0.000000 3.670000
v 0.230000 0.000000 6.130000
v 0.090000 2.800000 6.130000
v 0.090000 2.800000 3.670000
v 0.230000 2.800000 3.670000
v 0.230000 2.800000 6.130000
f 9 12 11 10
f 13 14 15 16
f 9 10 14 13
f 10 11 15 14
f 11 12 16 15
f 12 9 13 16
g wall_2
v 0.070000 0.000000 3.530000
v 0.230000 0.000000 3.530000
v 0.230000 0.000000 3.670000
v 0.070000 0.000000 3.670000
v 0.070000 2.800000 3.530000
v 0.230000 2.800000 3.530000
v 0.230000 2.800000 3.670000
v 0.070000 2.800000 3.670000
f 17 20 19 18
f 21 22 23 24
f 17 18 22 21
f 18 19 23 22
f 19 20 24 23
f 20 17 21 24
g wall_3
v 0.070000 0.000000 3.520000
v 0.070000 0.000000 2.490000
v 0.210000 0.000000 2.490000
v 0.210000 0.000000 3.520000
v 0.070000 2.800000 3.520000
v 0.070000 2.800000 2.490000
v 0.210000 2.800000 2.490000
v 0.210000 2.800000 3.520000
f 25 28 27 26
f 29 30 31 32
f 25 26 30 29
f 26 27 31 30
f 27 28 32 31
f 28 25 29 32
g wall_4
v 0.070000 0.000000 2.350000
v 0.220000 0.000000 2.350000
v 0.220000 0.000000 2.490000
v 0.070000 0.000000 2.490000
v 0.070000 2.800000 2.350000
v 0.220000 2.800000 2.350000
v 0.220000 2.800000 2.490000
v 0.070000 2.800000 2.490000
f 33 36 35 34
f 37 38 39 40
f 33 34 38 37
f 34 35 39 38
f 35 36 40 39
f 36 33 37 40
g wall_5
v 0.230000 0.000000 2.350000
v 0.600000 0.000000 2.350000
v 0.600000 0.000000 2.490000
v 0.230000 0.000000 2.490000
v 0.230000 2.800000 2.350000
v 0.600000 2.800000 2.350000
v 0.600000 2.800000 2.490000
v 0.230000 2.800000 2.490000
f 41 44 43 42
f 45 46 47 48
f 41 42 46 45
f 42 43 47 46
f 43 44 48 47
f 44 41 45 48
g wall_6
v 0.660000 0.000000 2.650000
v 0.660000 0.000000 2.330000
v 0.800000 0.000000 2.330000
v 0.800000 0.000000 2.650000
v 0.660000 2.800000 2.650000
v 0.660000 2.800000 2.330000
v 0.800000 2.800000 2.330000
v 0.800000 2.800000 2.650000
f 49 52 51 50
f 53 54 55 56
f 49 50 54 53
f 50 51 55 54
f 51 52 56 55
f 52 49 53 56
g wall_7
v 0.660000 0.000000 3.520000
v 0.860000 0.000000 3.520000
v 0.860000 0.000000 3.660000
v 0.660000 0.000000 3.660000
v 0.660000 2.800000 3.520000
v 0.860000 2.800000 3.520000
v 0.860000 2.800000 3.660000
v 0.660000 2.800000 3.660000
f 57 60 59 58
f 61 62 63 64
f 57 58 62 61
f 58 59 63 62
f 59 60 64 63
f 60 57 61 64
g wall_8
v 0.090000 0.000000 6.135000
v 0.240000 0.000000 6.135000
v 0.240000 0.000000 6.275000
v 0.090000 0.000000 6.275000
v 0.090000 2.800000 6.135000
v 0.240000 2.800000 6.135000
v 0.240000 2.800000 6.275000
v 0.090000 2.800000 6.275000
f 65 68 67 66
f 69 70 71 72
f 65 66 70 69
f 66 67 71 70
f 67 68 72 71
f 68 65 69 72
g wall_9
v 0.240000 0.000000 6.185000
v 0.650000 0.000000 6.185000
v 0.650000 0.000000 6.325000
v 0.240000 0.000000 6.325000
v 0.240000 2.800000 6.185000
v 0.650000 2.800000 6.185000
v 0.650000 2.800000 6.325000
v 0.240000 2.800000 6.325000
f 73 76 75 74
f 77 78 79 80
f 73 74 78 77
f 74 75 79 78
f 75 76 80 79
f 76 73 77 80
g wall_10
v 0.650000 0.000000 6.120000
v 0.880000 0.000000 6.120000
v 0.880000 0.000000 6.260000
v 0.650000 0.000000 6.260000
v 0.650000 2.800000 6.120000
v 0.880000 2.800000 6.120000
v 0.880000 2.800000 6.260000
v 0.650000 2.800000 6.260000
f 81 84 83 82
f 85 86 87 88
f 81 82 86 85
f 82 83 87 86
f 83 84 88 87
f 84 81 85 88
g wall_11
v 0.705000 0.000000 2.320000
v 0.705000 0.000000 0.320000
v 0.845000 0.000000 0.320000
v 0.845000 0.000000 2.320000
v 0.705000 2.800000 2.320000
v 0.705000 2.800000 0.320000
v 0.845000 2.800000 0.320000
v 0.845000 2.800000 2.320000
f 89 92 91 90
f 93 94 95 96
f 89 90 94 93
f 90 91 95 94
f 91 92 96 95
f 92 89 93 96
g wall_12
v 0.610000 0.000000 0.150000
v 0.850000 0.000000 0.150000
v 0.850000 0.000000 0.290000
v 0.610000 0.000000 0.290000
v 0.610000 2.800000 0.150000
v 0.850000 2.800000 0.150000
v 0.850000 2.800000 0.290000
v 0.610000 2.800000 0.290000
f 97 100 99 98
f 101 102 103 104
f 97 98 102 101
f 98 99 103 102
f 99 100 104 103
f 100 97 101 104
g wall_13
v 0.850000 0.000000 0.125000
v 4.300000 0.000000 0.125000
v 4.300000 0.000000 0.265000
v 0.850000 0.000000 0.265000
v 0.850000 2.800000 0.125000
v 4.300000 2.800000 0.125000
v 4.300000 2.800000 0.265000
v 0.850000 2.800000 0.265000
f 105 108 107 106
f 109 110 111 112
f 105 106 110 109
f 106 107 111 110
f 107 108 112 111
f 108 105 109 112
g wall_14
v 4.300000 0.000000 0.105000
v 4.460000 0.000000 0.105000
v 4.460000 0.000000 0.245000
v 4.300000 0.000000 0.245000
v 4.300000 2.800000 0.105000
v 4.460000 2.800000 0.105000
v 4.460000 2.800000 0.245000
v 4.300000 2.800000 0.245000
f 113 116 115 114
f 117 118 119 120
f 113 114 118 117
f 114 115 119 118
f 115 116 120 119
f 116 113 117 120
g wall_15
v 0.890000 0.000000 6.055000
v 2.810000 0.000000 6.055000
v 2.810000 0.000000 6.195000
v 0.890000 0.000000 6.195000
v 0.890000 2.800000 6.055000
v 2.810000 2.800000 6.055000
v 2.810000 2.800000 6.195000
v 0.890000 2.800000 6.195000
f 121 124 123 122
f 125 126 127 128
f 121 122 126 125
f 122 123 127 126
f 123 124 128 127
f 124 121 125 128
g wall_16
v 2.615000 0.000000 6.070000
v 2.615000 0.000000 5.570000
v 2.755000 0.000000 5.570000
v 2.755000 0.000000 6.070000
v 2.615000 2.800000 6.070000
v 2.615000 2.800000 5.570000
v 2.755000 2.800000 5.570000
v 2.755000 2.800000 6.070000
f 129 132 131 130
f 133 134 135 136
f 129 130 134 133
f 130 131 135 134
f 131 132 136 135
f 132 129 133 136
g wall_17
v 2.615000 0.000000 5.580000
v 2.615000 0.000000 4.680000
v 2.755000 0.000000 4.680000
v 2.755000 0.000000 5.580000
v 2.615000 2.800000 5.580000
v 2.615000 2.800000 4.680000
v 2.755000 2.800000 4.680000
v 2.755000 2.800000 5.580000
f 137 140 139 138
f 141 142 143 144
f 137 138 142 141
f 138 139 143 142
f 139 140 144 143
f 140 137 141 144
g wall_18
v 2.610000 0.000000 4.690000
v 2.610000 0.000000 4.320000
v 2.750000 0.000000 4.320000
v 2.750000 0.000000 4.690000
v 2.610000 2.800000 4.690000
v 2.610000 2.800000 4.320000
v 2.750000 2.800000 4.320000
v 2.750000 2.800000 4.690000
f 145 148 147 146
f 149 150 151 152
f 145 146 150 149
f 146 147 151 150
f 147 148 152 151
f 148 145 149 152
g wall_19
v 0.705000 0.000000 8.490000
v 0.705000 0.000000 6.280000
v 0.845000 0.000000 6.280000
v 0.845000 0.000000 8.490000
v 0.705000 2.800000 8.490000
v 0.705000 2.800000 6.280000
v 0.845000 2.800000 6.280000
v 0.845000 2.800000 8.490000
f 153 156 155 154
f 157 158 159 160
f 153 154 158 157
f 154 155 159 158
f 155 156 160 159
f 156 153 157 160
g wall_20
v 1.330000 0.000000 8.445000
v 1.550000 0.000000 8.445000
v 1.550000 0.000000 8.585000
v 1.330000 0.000000 8.585000
v 1.330000 2.800000 8.445000
v 1.550000 2.800000 8.445000
v 1.550000 2.800000 8.585000
v 1.330000 2.800000 8.585000
f 161 164 163 162
f 165 166 167 168
f 161 162 166 165
f 162 163 167 166
f 163 164 168 167
f 164 161 165 168
g wall_21
v 1.410000 0.000000 9.355000
v 3.360000 0.000000 9.355000
v 3.360000 0.000000 9.495000
v 1.410000 0.000000 9.495000
v 1.410000 2.800000 9.355000
v 3.360000 2.800000 9.355000
v 3.360000 2.800000 9.495000
v 1.410000 2.800000 9.495000
f 169 172 171 170
f 173 174 175 176
f 169 170 174 173
f 170 171 175 174
f 171 172 176 175
f 172 169 173 176
g wall_22
v 3.280000 0.000000 10.225000
v 3.490000 0.000000 10.225000
v 3.490000 0.000000 10.365000
v 3.280000 0.000000 10.365000
v 3.280000 2.800000 10.225000
v 3.490000 2.800000 10.225000
v 3.490000 2.800000 10.365000
v 3.280000 2.800000 10.365000
f 177 180 179 178
f 181 182 183 184
f 177 178 182 181
f 178 179 183 182
f 179 180 184 183
f 180 177 181 184
g wall_23
v 3.410000 0.000000 10.715000
v 5.970000 0.000000 10.715000
v 5.970000 0.000000 10.855000
v 3.410000 0.000000 10.855000
v 3.410000 2.800000 10.715000
v 5.970000 2.800000 10.715000
v 5.970000 2.800000 10.855000
v 3.410000 2.800000 10.855000
f 185 188 187 186
f 189 190 191 192
f 185 186 190 189
f 186 187 191 190
f 187 188 192 191
f 188 185 189 192
g wall_24
v 1.450000 0.000000 8.275000
v 1.590000 0.000000 8.275000
v 1.590000 0.000000 8.415000
v 1.450000 0.000000 8.415000
v 1.450000 2.800000 8.275000
v 1.590000 2.800000 8.275000
v 1.590000 2.800000 8.415000
v 1.450000 2.800000 8.415000
f 193 196 195 194
f 197 198 199 200
f 193 194 198 197
f 194 195 199 198
f 195 196 200 199
f 196 193 197 200
g wall_25
v 1.540000 0.000000 8.540000
v 1.540000 0.000000 8.430000
v 1.680000 0.000000 8.430000
v 1.680000 0.000000 8.540000
v 1.540000 2.800000 8.540000
v 1.540000 2.800000 8.430000
v 1.680000 2.800000 8.430000
v 1.680000 2.800000 8.540000
f 201 204 203 202
f 205 206 207 208
f 201 202 206 205
f 202 203 207 206
f 203 204 208 207
f 204 201 205 208
g wall_26
v 1.530000 0.000000 8.095000
v 2.560000 0.000000 8.095000
v 2.560000 0.000000 8.235000
v 1.530000 0.000000 8.235000
v 1.530000 2.800000 8.095000
v 2.560000 2.800000 8.095000
v 2.560000 2.800000 8.235000
v 1.530000 2.800000 8.235000
f 209 212 211 210
f 213 214 215 216
f 209 210 214 213
f 210 211 215 214
f 211 212 216 215
f 212 209 213 216
g wall_27
v 1.660000 0.000000 8.500000
v 1.970000 0.000000 8.500000
v 1.970000 0.000000 8.640000
v 1.660000 0.000000 8.640000
v 1.660000 2.800000 8.500000
v 1.970000 2.800000 8.500000
v 1.970000 2.800000 8.640000
v 1.660000 2.800000 8.640000
f 217 220 219 218
f 221 222 223 224
f 217 218 222 221
f 218 219 223 222
f 219 220 224 223
f 220 217 221 224
g wall_28
v 1.970000 0.000000 7.930000
v 3.400000 0.000000 7.930000
v 3.400000 0.000000 8.070000
v 1.970000 0.000000 8.070000
v 1.970000 2.800000 7.930000
v 3.400000 2.800000 7.930000
v 3.400000 2.800000 8.070000
v 1.970000 2.800000 8.070000
f 225 228 227 226
f 229 230 231 232
f 225 226 230 229
f 226 227 231 230
f 227 228 232 231
f 228 225 229 232
g wall_29
v 2.570000 0.000000 7.425000
v 3.630000 0.000000 7.425000
v 3.630000 0.000000 7.565000
v 2.570000 0.000000 7.565000
v 2.570000 2.800000 7.425000
v 3.630000 2.800000 7.425000
v 3.630000 2.800000 7.565000
v 2.570000 2.800000 7.565000
f 233 236 235 234
f 237 238 239 240
f 233 234 238 237
f 234 235 239 238
f 235 236 240 239
f 236 233 237 240
g wall_30
v 3.725000 0.000000 7.210000
v 3.725000 0.000000 6.890000
v 3.865000 0.000000 6.890000
v 3.865000 0.000000 7.210000
v 3.725000 2.800000 7.210000
v 3.725000 2.800000 6.890000
v 3.865000 2.800000 6.890000
v 3.865000 2.800000 7.210000
f 241 244 243 242
f 245 246 247 248
f 241 242 246 245
f 242 243 247 246
f 243 244 248 247
f 244 241 245 248
g wall_31
v 2.790000 0.000000 6.270000
v 3.170000 0.000000 6.270000
v 3.170000 0.000000 6.410000
v 2.790000 0.000000 6.410000
v 2.790000 2.800000 6.270000
v 3.170000 2.800000 6.270000
v 3.170000 2.800000 6.410000
v 2.790000 2.800000 6.410000
f 249 252 251 250
f 253 254 255 256
f 249 250 254 253
f 250 251 255 254
f 251 252 256 255
f 252 249 253 256
g wall_32
v 2.800000 0.000000 6.210000
v 3.210000 0.000000 6.210000
v 3.210000 0.000000 6.350000
v 2.800000 0.000000 6.350000
v 2.800000 2.800000 6.210000
v 3.210000 2.800000 6.210000
v 3.210000 2.800000 6.350000
v 2.800000 2.800000 6.350000
f 257 260 259 258
f 261 262 263 264
f 257 258 262 261
f 258 259 263 262
f 259 260 264 263
f 260 257 261 264
g wall_33
v 4.875000 0.000000 9.430000
v 4.875000 0.000000 7.280000
v 5.015000 0.000000 7.280000
v 5.015000 0.000000 9.430000
v 4.875000 2.800000 9.430000
v 4.875000 2.800000 7.280000
v 5.015000 2.800000 7.280000
v 5.015000 2.800000 9.430000
f 265 268 267 266
f 269 270 271 272
f 265 266 270 269
f 266 267 271 270
f 267 268 272 271
f 268 265 269 272
g wall_34
v 4.415000 0.000000 10.430000
v 4.415000 0.000000 9.430000
v 4.555000 0.000000 9.430000
v 4.555000 0.000000 10.430000
v 4.415000 2.800000 10.430000
v 4.415000 2.800000 9.430000
v 4.555000 2.800000 9.430000
v 4.555000 2.800000 10.430000
f 273 276 275 274
f 277 278 279 280
f 273 274 278 277
f 274 275 279 278
f 275 276 280 279
f 276 273 277 280
g wall_35
v 4.470000 0.000000 10.470000
v 4.470000 0.000000 9.460000
v 4.610000 0.000000 9.460000
v 4.610000 0.000000 10.470000
v 4.470000 2.800000 10.470000
v 4.470000 2.800000 9.460000
v 4.610000 2.800000 9.460000
v 4.610000 2.800000 10.470000
f 281 284 283 282
f 285 286 287 288
f 281 282 286 285
f 282 283 287 286
f 283 284 288 287
f 284 281 285 288
g wall_36
v 4.945000 0.000000 9.460000
v 4.945000 0.000000 7.580000
v 5.085000 0.000000 7.580000
v 5.085000 0.000000 9.460000
v 4.945000 2.800000 9.460000
v 4.945000 2.800000 7.580000
v 5.085000 2.800000 7.580000
v 5.085000 2.800000 9.460000
f 289 292 291 290
f 293 294 295 296
f 289 290 294 293
f 290 291 295 294
f 291 292 296 295
f 292 289 293 296
g wall_37
v 5.010000 0.000000 7.495000
v 7.750000 0.000000 7.495000
v 7.750000 0.000000 7.635000
v 5.010000 0.000000 7.635000
v 5.010000 2.800000 7.495000
v 7.750000 2.800000 7.495000
v 7.750000 2.800000 7.635000
v 5.010000 2.800000 7.635000
f 297 300 299 298
f 301 302 303 304
f 297 298 302 301
f 298 299 303 302
f 299 300 304 303
f 300 297 301 304
g wall_38
v 5.970000 0.000000 11.155000
v 6.130000 0.000000 11.155000
v 6.130000 0.000000 11.295000
v 5.970000 0.000000 11.295000
v 5.970000 2.800000 11.155000
v 6.130000 2.800000 11.155000
v 6.130000 2.800000 11.295000
v 5.970000 2.800000 11.295000
f 305 308 307 306
f 309 310 311 312
f 305 306 310 309
f 306 307 311 310
f 307 308 312 311
f 308 305 309 312
g wall_39
v 5.970000 0.000000 10.740000
v 5.970000 0.000000 10.530000
v 6.110000 0.000000 10.530000
v 6.110000 0.000000 10.740000
v 5.970000 2.800000 10.740000
v 5.970000 2.800000 10.530000
v 6.110000 2.800000 10.530000
v 6.110000 2.800000 10.740000
f 313 316 315 314
f 317 318 319 320
f 313 314 318 317
f 314 315 319 318
f 315 316 320 319
f 316 313 317 320
g wall_40
v 6.130000 0.000000 11.150000
v 8.670000 0.000000 11.150000
v 8.670000 0.000000 11.290000
v 6.130000 0.000000 11.290000
v 6.130000 2.800000 11.150000
v 8.670000 2.800000 11.150000
v 8.670000 2.800000 11.290000
v 6.130000 2.800000 11.290000
f 321 324 323 322
f 325 326 327 328
f 321 322 326 325
f 322 323 327 326
f 323 324 328 327
f 324 321 325 328
g wall_41
v 8.660000 0.000000 11.135000
v 8.830000 0.000000 11.135000
v 8.830000 0.000000 11.275000
v 8.660000 0.000000 11.275000
v 8.660000 2.800000 11.135000
v 8.830000 2.800000 11.135000
v 8.830000 2.800000 11.275000
v 8.660000 2.800000 11.275000
f 329 332 331 330
f 333 334 335 336
f 329 330 334 333
f 330 331 335 334
f 331 332 336 335
f 332 329 333 336
g wall_42
v 8.830000 0.000000 11.135000
v 9.360000 0.000000 11.135000
v 9.360000 0.000000 11.275000
v 8.830000 0.000000 11.275000
v 8.830000 2.800000 11.135000
v 9.360000 2.800000 11.135000
v 9.360000 2.800000 11.275000
v 8.830000 2.800000 11.275000
f 337 340 339 338
f 341 342 343 344
f 337 338 342 341
f 338 339 343 342
f 339 340 344 343
f 340 337 341 344
g wall_43
v 8.680000 0.000000 11.120000
v 8.680000 0.000000 10.980000
v 8.820000 0.000000 10.980000
v 8.820000 0.000000 11.120000
v 8.680000 2.800000 11.120000
v 8.680000 2.800000 10.980000
v 8.820000 2.800000 10.980000
v 8.820000 2.800000 11.120000
f 345 348 347 346
f 349 350 351 352
f 345 346 350 349
f 346 347 351 350
f 347 348 352 351
f 348 345 349 352
g wall_44
v 8.630000 0.000000 10.885000
v 8.880000 0.000000 10.885000
v 8.880000 0.000000 11.025000
v 8.630000 0.000000 11.025000
v 8.630000 2.800000 10.885000
v 8.880000 2.800000 10.885000
v 8.880000 2.800000 11.025000
v 8.630000 2.800000 11.025000
f 353 356 355 354
f 357 358 359 360
f 353 354 358 357
f 354 355 359 358
f 355 356 360 359
f 356 353 357 360
g wall_45
v 8.765000 0.000000 10.920000
v 8.765000 0.000000 8.940000
v 8.905000 0.000000 8.940000
v 8.905000 0.000000 10.920000
v 8.765000 2.800000 10.920000
v 8.765000 2.800000 8.940000
v 8.905000 2.800000 8.940000
v 8.905000 2.800000 10.920000
f 361 364 363 362
f 365 366 367 368
f 361 362 366 365
f 362 363 367 366
f 363 364 368 367
f 364 361 365 368
g wall_46
v 8.785000 0.000000 8.940000
v 8.785000 0.000000 8.660000
v 8.925000 0.000000 8.660000
v 8.925000 0.000000 8.940000
v 8.785000 2.800000 8.940000
v 8.785000 2.800000 8.660000
v 8.925000 2.800000 8.660000
v 8.925000 2.800000 8.940000
f 369 372 371 370
f 373 374 375 376
f 369 370 374 373
f 370 371 375 374
f 371 372 376 375
f 372 369 373 376
g wall_47
v 8.600000 0.000000 8.720000
v 8.850000 0.000000 8.720000
v 8.850000 0.000000 8.860000
v 8.600000 0.000000 8.860000
v 8.600000 2.800000 8.720000
v 8.850000 2.800000 8.720000
v 8.850000 2.800000 8.860000
v 8.600000 2.800000 8.860000
f 377 380 379 378
f 381 382 383 384
f 377 378 382 381
f 378 379 383 382
f 379 380 384 383
f 380 377 381 384
g wall_48
v 2.845000 0.000000 2.440000
v 2.845000 0.000000 1.500000
v 2.985000 0.000000 1.500000
v 2.985000 0.000000 2.440000
v 2.845000 2.800000 2.440000
v 2.845000 2.800000 1.500000
v 2.985000 2.800000 1.500000
v 2.985000 2.800000 2.440000
f 385 388 387 386
f 389 390 391 392
f 385 386 390 389
f 386 387 391 390
f 387 388 392 391
f 388 385 389 392
g wall_49
v 4.275000 0.000000 1.470000
v 4.275000 0.000000 0.270000
v 4.415000 0.000000 0.270000
v 4.415000 0.000000 1.470000
v 4.275000 2.800000 1.470000
v 4.275000 2.800000 0.270000
v 4.415000 2.800000 0.270000
v 4.415000 2.800000 1.470000
f 393 396 395 394
f 397 398 399 400
f 393 394 398 397
f 394 395 399 398
f 395 396 400 399
f 396 393 397 400
g wall_50
v 4.390000 0.000000 1.375000
v 4.810000 0.000000 1.375000
v 4.810000 0.000000 1.515000
v 4.390000 0.000000 1.515000
v 4.390000 2.800000 1.375000
v 4.810000 2.800000 1.375000
v 4.810000 2.800000 1.515000
v 4.390000 2.800000 1.515000
f 401 404 403 402
f 405 406 407 408
f 401 402 406 405
f 402 403 407 406
f 403 404 408 407
f 404 401 405 408
g wall_51
v 4.820000 0.000000 1.325000
v 4.970000 0.000000 1.325000
v 4.970000 0.000000 1.465000
v 4.820000 0.000000 1.465000
v 4.820000 2.800000 1.325000
v 4.970000 2.800000 1.325000
v 4.970000 2.800000 1.465000
v 4.820000 2.800000 1.465000
f 409 412 411 410
f 413 414 415 416
f 409 410 414 413
f 410 411 415 414
f 411 412 416 415
f 412 409 413 416
g wall_52
v 4.390000 0.000000 1.300000
v 4.810000 0.000000 1.300000
v 4.810000 0.000000 1.440000
v 4.390000 0.000000 1.440000
v 4.390000 2.800000 1.300000
v 4.810000 2.800000 1.300000
v 4.810000 2.800000 1.440000
v 4.390000 2.800000 1.440000
f 417 420 419 418
f 421 422 423 424
f 417 418 422 421
f 418 419 423 422
f 419 420 424 423
f 420 417 421 424
g wall_53
v 4.350000 0.000000 1.330000
v 4.350000 0.000000 0.250000
v 4.490000 0.000000 0.250000
v 4.490000 0.000000 1.330000
v 4.350000 2.800000 1.330000
v 4.350000 2.800000 0.250000
v 4.490000 2.800000 0.250000
v 4.490000 2.800000 1.330000
f 425 428 427 426
f 429 430 431 432
f 425 426 430 429
f 426 427 431 430
f 427 428 432 431
f 428 425 429 432
g wall_54
v 4.960000 0.000000 1.330000
v 5.920000 0.000000 1.330000
v 5.920000 0.000000 1.470000
v 4.960000 0.000000 1.470000
v 4.960000 2.800000 1.330000
v 5.920000 2.800000 1.330000
v 5.920000 2.800000 1.470000
v 4.960000 2.800000 1.470000
f 433 436 435 434
f 437 438 439 440
f 433 434 438 437
f 434 435 439 438
f 435 436 440 439
f 436 433 437 440
g wall_55
v 5.910000 0.000000 1.325000
v 6.070000 0.000000 1.325000
v 6.070000 0.000000 1.465000
v 5.910000 0.000000 1.465000
v 5.910000 2.800000 1.325000
v 6.070000 2.800000 1.325000
v 6.070000 2.800000 1.465000
v 5.910000 2.800000 1.465000
f 441 444 443 442
f 445 446 447 448
f 441 442 446 445
f 442 443 447 446
f 443 444 448 447
f 444 441 445 448
g wall_56
v 4.460000 0.000000 0.100000
v 5.910000 0.000000 0.100000
v 5.910000 0.000000 0.240000
v 4.460000 0.000000 0.240000
v 4.460000 2.800000 0.100000
v 5.910000 2.800000 0.100000
v 5.910000 2.800000 0.240000
v 4.460000 2.800000 0.240000
f 449 452 451 450
f 453 454 455 456
f 449 450 454 453
f 450 451 455 454
f 451 452 456 455
f 452 449 453 456
g wall_57
v 5.930000 0.000000 1.320000
v 5.930000 0.000000 0.250000
v 6.070000 0.000000 0.250000
v 6.070000 0.000000 1.320000
v 5.930000 2.800000 1.320000
v 5.930000 2.800000 0.250000
v 6.070000 2.800000 0.250000
v 6.070000 2.800000 1.320000
f 457 460 459 458
f 461 462 463 464
f 457 458 462 461
f 458 459 463 462
f 459 460 464 463
f 460 457 461 464
g wall_58
v 5.920000 0.000000 0.100000
v 6.080000 0.000000 0.100000
v 6.080000 0.000000 0.240000
v 5.920000 0.000000 0.240000
v 5.920000 2.800000 0.100000
v 6.080000 2.800000 0.100000
v 6.080000 2.800000 0.240000
v 5.920000 2.800000 0.240000
f 465 468 467 466
f 469 470 471 472
f 465 466 470 469
f 466 467 471 470
f 467 468 472 471
f 468 465 469 472
g wall_59
v 6.080000 0.000000 0.095000
v 7.120000 0.000000 0.095000
v 7.120000 0.000000 0.235000
v 6.080000 0.000000 0.235000
v 6.080000 2.800000 0.095000
v 7.120000 2.800000 0.095000
v 7.120000 2.800000 0.235000
v 6.080000 2.800000 0.235000
f 473 476 475 474
f 477 478 479 480
f 473 474 478 477
f 474 475 479 478
f 475 476 480 479
f 476 473 477 480
g wall_60
v 7.130000 0.000000 0.230000
v 7.130000 0.000000 0.080000
v 7.270000 0.000000 0.080000
v 7.270000 0.000000 0.230000
v 7.130000 2.800000 0.230000
v 7.130000 2.800000 0.080000
v 7.270000 2.800000 0.080000
v 7.270000 2.800000 0.230000
f 481 484 483 482
f 485 486 487 488
f 481 482 486 485
f 482 483 487 486
f 483 484 488 487
f 484 481 485 488
g wall_61
v 7.270000 0.000000 0.080000
v 8.980000 0.000000 0.080000
v 8.980000 0.000000 0.220000
v 7.270000 0.000000 0.220000
v 7.270000 2.800000 0.080000
v 8.980000 2.800000 0.080000
v 8.980000 2.800000 0.220000
v 7.270000 2.800000 0.220000
f 489 492 491 490
f 493 494 495 496
f 489 490 494 493
f 490 491 495 494
f 491 492 496 495
f 492 489 493 496
g wall_62
v 7.770000 0.000000 0.550000
v 9.170000 0.000000 0.550000
v 9.170000 0.000000 0.690000
v 7.770000 0.000000 0.690000
v 7.770000 2.800000 0.550000
v 9.170000 2.800000 0.550000
v 9.170000 2.800000 0.690000
v 7.770000 2.800000 0.690000
f 497 500 499 498
f 501 502 503 504
f 497 498 502 501
f 498 499 503 502
f 499 500 504 503
f 500 497 501 504
g wall_63
v 7.760000 0.000000 0.560000
v 7.760000 0.000000 0.240000
v 7.900000 0.000000 0.240000
v 7.900000 0.000000 0.560000
v 7.760000 2.800000 0.560000
v 7.760000 2.800000 0.240000
v 7.900000 2.800000 0.240000
v 7.900000 2.800000 0.560000
f 505 508 507 506
f 509 510 511 512
f 505 506 510 509
f 506 507 511 510
f 507 508 512 511
f 508 505 509 512
g wall_64
v 9.030000 0.000000 0.560000
v 9.030000 0.000000 0.230000
v 9.170000 0.000000 0.230000
v 9.170000 0.000000 0.560000
v 9.030000 2.800000 0.560000
v 9.030000 2.800000 0.230000
v 9.170000 2.800000 0.230000
v 9.170000 2.800000 0.560000
f 513 516 515 514
f 517 518 519 520
f 513 514 518 517
f 514 515 519 518
f 515 516 520 519
f 516 513 517 520
g wall_65
v 9.000000 0.000000 0.220000
v 9.000000 0.000000 0.070000
v 9.140000 0.000000 0.070000
v 9.140000 0.000000 0.220000
v 9.000000 2.800000 0.220000
v 9.000000 2.800000 0.070000
v 9.140000 2.800000 0.070000
v 9.140000 2.800000 0.220000
f 521 524 523 522
f 525 526 527 528
f 521 522 526 525
f 522 523 527 526
f 523 524 528 527
f 524 521 525 528
g wall_66
v 9.150000 0.000000 0.080000
v 9.360000 0.000000 0.080000
v 9.360000 0.000000 0.220000
v 9.150000 0.000000 0.220000
v 9.150000 2.800000 0.080000
v 9.360000 2.800000 0.080000
v 9.360000 2.800000 0.220000
v 9.150000 2.800000 0.220000
f 529 532 531 530
f 533 534 535 536
f 529 530 534 533
f 530 531 535 534
f 531 532 536 535
f 532 529 533 536
g wall_67
v 6.060000 0.000000 1.325000
v 8.610000 0.000000 1.325000
v 8.610000 0.000000 1.465000
v 6.060000 0.000000 1.465000
v 6.060000 2.800000 1.325000
v 8.610000 2.800000 1.325000
v 8.610000 2.800000 1.465000
v 6.060000 2.800000 1.465000
f 537 540 539 538
f 541 542 543 544
f 537 538 542 541
f 538 539 543 542
f 539 540 544 543
f 540 537 541 544
g wall_68
v 8.610000 0.000000 1.310000
v 8.770000 0.000000 1.310000
v 8.770000 0.000000 1.450000
v 8.610000 0.000000 1.450000
v 8.610000 2.800000 1.310000
v 8.770000 2.800000 1.310000
v 8.770000 2.800000 1.450000
v 8.610000 2.800000 1.450000
f 545 548 547 546
f 549 550 551 552
f 545 546 550 549
f 546 547 551 550
f 547 548 552 551
f 548 545 549 552
g wall_69
v 6.070000 0.000000 0.705000
v 6.830000 0.000000 0.705000
v 6.830000 0.000000 0.845000
v 6.070000 0.000000 0.845000
v 6.070000 2.800000 0.705000
v 6.830000 2.800000 0.705000
v 6.830000 2.800000 0.845000
v 6.070000 2.800000 0.845000
f 553 556 555 554
f 557 558 559 560
f 553 554 558 557
f 554 555 559 558
f 555 556 560 559
f 556 553 557 560
g wall_70
v 2.880000 0.000000 1.510000
v 2.880000 0.000000 0.290000
v 3.020000 0.000000 0.290000
v 3.020000 0.000000 1.510000
v 2.880000 2.800000 1.510000
v 2.880000 2.800000 0.290000
v 3.020000 2.800000 0.290000
v 3.020000 2.800000 1.510000
f 561 564 563 562
f 565 566 567 568
f 561 562 566 565
f 562 563 567 566
f 563 564 568 567
f 564 561 565 568
g wall_71
v 4.070000 0.000000 2.810000
v 4.070000 0.000000 2.140000
v 4.210000 0.000000 2.140000
v 4.210000 0.000000 2.810000
v 4.070000 2.800000 2.810000
v 4.070000 2.800000 2.140000
v 4.210000 2.800000 2.140000
v 4.210000 2.800000 2.810000
f 569 572 571 570
f 573 574 575 576
f 569 570 574 573
f 570 571 575 574
f 571 572 576 575
f 572 569 573 576
g wall_72
v 4.180000 0.000000 2.480000
v 4.470000 0.000000 2.480000
v 4.470000 0.000000 2.620000
v 4.180000 0.000000 2.620000
v 4.180000 2.800000 2.480000
v 4.470000 2.800000 2.480000
v 4.470000 2.800000 2.620000
v 4.180000 2.800000 2.620000
f 577 580 579 578
f 581 582 583 584
f 577 578 582 581
f 578 579 583 582
f 579 580 584 583
f 580 577 581 584
g wall_73
v 4.370000 0.000000 2.460000
v 4.370000 0.000000 1.490000
v 4.510000 0.000000 1.490000
v 4.510000 0.000000 2.460000
v 4.370000 2.800000 2.460000
v 4.370000 2.800000 1.490000
v 4.510000 2.800000 1.490000
v 4.510000 2.800000 2.460000
f 585 588 587 586
f 589 590 591 592
f 585 586 590 589
f 586 587 591 590
f 587 588 592 591
f 588 585 589 592
g wall_74
v 8.525000 0.000000 8.730000
v 8.525000 0.000000 7.860000
v 8.665000 0.000000 7.860000
v 8.665000 0.000000 8.730000
v 8.525000 2.800000 8.730000
v 8.525000 2.800000 7.860000
v 8.665000 2.800000 7.860000
v 8.665000 2.800000 8.730000
f 593 596 595 594
f 597 598 599 600
f 593 594 598 597
f 594 595 599 598
f 595 596 600 599
f 596 593 597 600
g wall_75
v 8.835000 0.000000 8.130000
v 8.835000 0.000000 8.050000
v 8.975000 0.000000 8.050000
v 8.975000 0.000000 8.130000
v 8.835000 2.800000 8.130000
v 8.835000 2.800000 8.050000
v 8.975000 2.800000 8.050000
v 8.975000 2.800000 8.130000
f 601 604 603 602
f 605 606 607 608
f 601 602 606 605
f 602 603 607 606
f 603 604 608 607
f 604 601 605 608
g wall_76
v 4.250000 0.000000 6.235000
v 4.390000 0.000000 6.235000
v 4.390000 0.000000 6.375000
v 4.250000 0.000000 6.375000
v 4.250000 2.800000 6.235000
v 4.390000 2.800000 6.235000
v 4.390000 2.800000 6.375000
v 4.250000 2.800000 6.375000
f 609 612 611 610
f 613 614 615 616
f 609 610 614 613
f 610 611 615 614
f 611 612 616 615
f 612 609 613 616
g wall_77
v 4.050000 0.000000 6.155000
v 4.240000 0.000000 6.155000
v 4.240000 0.000000 6.295000
v 4.050000 0.000000 6.295000
v 4.050000 2.800000 6.155000
v 4.240000 2.800000 6.155000
v 4.240000 2.800000 6.295000
v 4.050000 2.800000 6.295000
f 617 620 619 618
f 621 622 623 624
f 617 618 622 621
f 618 619 623 622
f 619 620 624 623
f 620 617 621 624
g wall_78
v 4.100000 0.000000 6.090000
v 4.270000 0.000000 6.090000
v 4.270000 0.000000 6.230000
v 4.100000 0.000000 6.230000
v 4.100000 2.800000 6.090000
v 4.270000 2.800000 6.090000
v 4.270000 2.800000 6.230000
v 4.100000 2.800000 6.230000
f 625 628 627 626
f 629 630 631 632
f 625 626 630 629
f 626 627 631 630
f 627 628 632 631
f 628 625 629 632
g wall_79
v 3.710000 0.000000 5.855000
v 4.060000 0.000000 5.855000
v 4.060000 0.000000 5.995000
v 3.710000 0.000000 5.995000
v 3.710000 2.800000 5.855000
v 4.060000 2.800000 5.855000
v 4.060000 2.800000 5.995000
v 3.710000 2.800000 5.995000
f 633 636 635 634
f 637 638 639 640
f 633 634 638 637
f 634 635 639 638
f 635 636 640 639
f 636 633 637 640
g wall_80
v 3.630000 0.000000 5.655000
v 3.690000 0.000000 5.655000
v 3.690000 0.000000 5.795000
v 3.630000 0.000000 5.795000
v 3.630000 2.800000 5.655000
v 3.690000 2.800000 5.655000
v 3.690000 2.800000 5.795000
v 3.630000 2.800000 5.795000
f 641 644 643 642
f 645 646 647 648
f 641 642 646 645
f 642 643 647 646
f 643 644 648 647
f 644 641 645 648
g wall_81
v 3.550000 0.000000 5.140000
v 3.550000 0.000000 3.980000
v 3.690000 0.000000 3.980000
v 3.690000 0.000000 5.140000
v 3.550000 2.800000 5.140000
v 3.550000 2.800000 3.980000
v 3.690000 2.800000 3.980000
v 3.690000 2.800000 5.140000
f 649 652 651 650
f 653 654 655 656
f 649 650 654 653
f 650 651 655 654
f 651 652 656 655
f 652 649 653 656
g wall_82
v 3.680000 0.000000 4.110000
v 4.260000 0.000000 4.110000
v 4.260000 0.000000 4.250000
v 3.680000 0.000000 4.250000
v 3.680000 2.800000 4.110000
v 4.260000 2.800000 4.110000
v 4.260000 2.800000 4.250000
v 3.680000 2.800000 4.250000
f 657 660 659 658
f 661 662 663 664
f 657 658 662 661
f 658 659 663 662
f 659 660 664 663
f 660 657 661 664
g wall_83
v 3.620000 0.000000 4.115000
v 4.120000 0.000000 4.115000
v 4.120000 0.000000 4.255000
v 3.620000 0.000000 4.255000
v 3.620000 2.800000 4.115000
v 4.120000 2.800000 4.115000
v 4.120000 2.800000 4.255000
v 3.620000 2.800000 4.255000
f 665 668 667 666
f 669 670 671 672
f 665 666 670 669
f 666 667 671 670
f 667 668 672 671
f 668 665 669 672
g wall_84
v 3.620000 0.000000 3.715000
v 4.010000 0.000000 3.715000
v 4.010000 0.000000 3.855000
v 3.620000 0.000000 3.855000
v 3.620000 2.800000 3.715000
v 4.010000 2.800000 3.715000
v 4.010000 2.800000 3.855000
v 3.620000 2.800000 3.855000
f 673 676 675 674
f 677 678 679 680
f 673 674 678 677
f 674 675 679 678
f 675 676 680 679
f 676 673 677 680
g wall_85
v 4.045000 0.000000 3.940000
v 4.045000 0.000000 3.380000
v 4.185000 0.000000 3.380000
v 4.185000 0.000000 3.940000
v 4.045000 2.800000 3.940000
v 4.045000 2.800000 3.380000
v 4.185000 2.800000 3.380000
v 4.185000 2.800000 3.940000
f 681 684 683 682
f 685 686 687 688
f 681 682 686 685
f 682 683 687 686
f 683 684 688 687
f 684 681 685 688
g wall_86
v 4.270000 0.000000 3.805000
v 8.520000 0.000000 3.805000
v 8.520000 0.000000 3.945000
v 4.270000 0.000000 3.945000
v 4.270000 2.800000 3.805000
v 8.520000 2.800000 3.805000
v 8.520000 2.800000 3.945000
v 4.270000 2.800000 3.945000
f 689 692 691 690
f 693 694 695 696
f 689 690 694 693
f 690 691 695 694
f 691 692 696 695
f 692 689 693 696
g wall_87
v 4.420000 0.000000 6.185000
v 4.940000 0.000000 6.185000
v 4.940000 0.000000 6.325000
v 4.420000 0.000000 6.325000
v 4.420000 2.800000 6.185000
v 4.940000 2.800000 6.185000
v 4.940000 2.800000 6.325000
v 4.420000 2.800000 6.325000
f 697 700 699 698
f 701 702 703 704
f 697 698 702 701
f 698 699 703 702
f 699 700 704 703
f 700 697 701 704
g wall_88
v 5.460000 0.000000 6.225000
v 6.440000 0.000000 6.225000
v 6.440000 0.000000 6.365000
v 5.460000 0.000000 6.365000
v 5.460000 2.800000 6.225000
v 6.440000 2.800000 6.225000
v 6.440000 2.800000 6.365000
v 5.460000 2.800000 6.365000
f 705 708 707 706
f 709 710 711 712
f 705 706 710 709
f 706 707 711 710
f 707 708 712 711
f 708 705 709 712
g wall_89
v 5.830000 0.000000 6.240000
v 5.830000 0.000000 6.020000
v 5.970000 0.000000 6.020000
v 5.970000 0.000000 6.240000
v 5.830000 2.800000 6.240000
v 5.830000 2.800000 6.020000
v 5.970000 2.800000 6.020000
v 5.970000 2.800000 6.240000
f 713 716 715 714
f 717 718 719 720
f 713 714 718 717
f 714 715 719 718
f 715 716 720 719
f 716 713 717 720
g wall_90
v 6.000000 0.000000 5.945000
v 6.220000 0.000000 5.945000
v 6.220000 0.000000 6.085000
v 6.000000 0.000000 6.085000
v 6.000000 2.800000 5.945000
v 6.220000 2.800000 5.945000
v 6.220000 2.800000 6.085000
v 6.000000 2.800000 6.085000
f 721 724 723 722
f 725 726 727 728
f 721 722 726 725
f 722 723 727 726
f 723 724 728 727
f 724 721 725 728
g wall_91
v 6.210000 0.000000 6.220000
v 6.210000 0.000000 6.010000
v 6.350000 0.000000 6.010000
v 6.350000 0.000000 6.220000
v 6.210000 2.800000 6.220000
v 6.210000 2.800000 6.010000
v 6.350000 2.800000 6.010000
v 6.350000 2.800000 6.220000
f 729 732 731 730
f 733 734 735 736
f 729 730 734 733
f 730 731 735 734
f 731 732 736 735
f 732 729 733 736
g wall_92
v 6.450000 0.000000 6.175000
v 6.970000 0.000000 6.175000
v 6.970000 0.000000 6.315000
v 6.450000 0.000000 6.315000
v 6.450000 2.800000 6.175000
v 6.970000 2.800000 6.175000
v 6.970000 2.800000 6.315000
v 6.450000 2.800000 6.315000
f 737 740 739 738
f 741 742 743 744
f 737 738 742 741
f 738 739 743 742
f 739 740 744 743
f 740 737 741 744
g wall_93
v 6.700000 0.000000 6.220000
v 7.210000 0.000000 6.220000
v 7.210000 0.000000 6.360000
v 6.700000 0.000000 6.360000
v 6.700000 2.800000 6.220000
v 7.210000 2.800000 6.220000
v 7.210000 2.800000 6.360000
v 6.700000 2.800000 6.360000
f 745 748 747 746
f 749 750 751 752
f 745 746 750 749
f 746 747 751 750
f 747 748 752 751
f 748 745 749 752
g wall_94
v 8.000000 0.000000 6.110000
v 8.180000 0.000000 6.110000
v 8.180000 0.000000 6.250000
v 8.000000 0.000000 6.250000
v 8.000000 2.800000 6.110000
v 8.180000 2.800000 6.110000
v 8.180000 2.800000 6.250000
v 8.000000 2.800000 6.250000
f 753 756 755 754
f 757 758 759 760
f 753 754 758 757
f 754 755 759 758
f 755 756 760 759
f 756 753 757 760
g wall_95
v 7.695000 0.000000 6.280000
v 7.695000 0.000000 6.220000
v 7.835000 0.000000 6.220000
v 7.835000 0.000000 6.280000
v 7.695000 2.800000 6.280000
v 7.695000 2.800000 6.220000
v 7.835000 2.800000 6.220000
v 7.835000 2.800000 6.280000
f 761 764 763 762
f 765 766 767 768
f 761 762 766 765
f 762 763 767 766
f 763 764 768 767
f 764 761 765 768
g wall_96
v 7.960000 0.000000 6.060000
v 8.130000 0.000000 6.060000
v 8.130000 0.000000 6.200000
v 7.960000 0.000000 6.200000
v 7.960000 2.800000 6.060000
v 8.130000 2.800000 6.060000
v 8.130000 2.800000 6.200000
v 7.960000 2.800000 6.200000
f 769 772 771 770
f 773 774 775 776
f 769 770 774 773
f 770 771 775 774
f 771 772 776 775
f 772 769 773 776
g wall_97
v 8.120000 0.000000 5.995000
v 8.180000 0.000000 5.995000
v 8.180000 0.000000 6.135000
v 8.120000 0.000000 6.135000
v 8.120000 2.800000 5.995000
v 8.180000 2.800000 5.995000
v 8.180000 2.800000 6.135000
v 8.120000 2.800000 6.135000
f 777 780 779 778
f 781 782 783 784
f 777 778 782 781
f 778 779 783 782
f 779 780 784 783
f 780 777 781 784
g wall_98
v 8.150000 0.000000 5.820000
v 8.520000 0.000000 5.820000
v 8.520000 0.000000 5.960000
v 8.150000 0.000000 5.960000
v 8.150000 2.800000 5.820000
v 8.520000 2.800000 5.820000
v 8.520000 2.800000 5.960000
v 8.150000 2.800000 5.960000
f 785 788 787 786
f 789 790 791 792
f 785 786 790 789
f 786 787 791 790
f 787 788 792 791
f 788 785 789 792
g wall_99
v 8.475000 0.000000 5.710000
v 8.475000 0.000000 5.600000
v 8.615000 0.000000 5.600000
v 8.615000 0.000000 5.710000
v 8.475000 2.800000 5.710000
v 8.475000 2.800000 5.600000
v 8.615000 2.800000 5.600000
v 8.615000 2.800000 5.710000
f 793 796 795 794
f 797 798 799 800
f 793 794 798 797
f 794 795 799 798
f 795 796 800 799
f 796 793 797 800
g wall_100
v 8.490000 0.000000 5.090000
v 8.490000 0.000000 3.850000
v 8.630000 0.000000 3.850000
v 8.630000 0.000000 5.090000
v 8.490000 2.800000 5.090000
v 8.490000 2.800000 3.850000
v 8.630000 2.800000 3.850000
v 8.630000 2.800000 5.090000
f 801 804 803 802
f 805 806 807 808
f 801 802 806 805
f 802 803 807 806
f 803 804 808 807
f 804 801 805 808
g wall_101
v 8.590000 0.000000 3.605000
v 8.910000 0.000000 3.605000
v 8.910000 0.000000 3.745000
v 8.590000 0.000000 3.745000
v 8.590000 2.800000 3.605000
v 8.910000 2.800000 3.605000
v 8.910000 2.800000 3.745000
v 8.590000 2.800000 3.745000
f 809 812 811 810
f 813 814 815 816
f 809 810 814 813
f 810 811 815 814
f 811 812 816 815
f 812 809 813 816
g wall_102
v 8.830000 0.000000 3.175000
v 8.890000 0.000000 3.175000
v 8.890000 0.000000 3.315000
v 8.830000 0.000000 3.315000
v 8.830000 2.800000 3.175000
v 8.890000 2.800000 3.175000
v 8.890000 2.800000 3.315000
v 8.830000 2.800000 3.315000
f 817 820 819 818
f 821 822 823 824
f 817 818 822 821
f 818 819 823 822
f 819 820 824 823
f 820 817 821 824
g wall_103
v 4.190000 0.000000 3.735000
v 8.550000 0.000000 3.735000
v 8.550000 0.000000 3.875000
v 4.190000 0.000000 3.875000
v 4.190000 2.800000 3.735000
v 8.550000 2.800000 3.735000
v 8.550000 2.800000 3.875000
v 4.190000 2.800000 3.875000
f 825 828 827 826
f 829 830 831 832
f 825 826 830 829
f 826 827 831 830
f 827 828 832 831
f 828 825 829 832
g wall_104
v 8.620000 0.000000 2.020000
v 8.620000 0.000000 1.470000
v 8.760000 0.000000 1.470000
v 8.760000 0.000000 2.020000
v 8.620000 2.800000 2.020000
v 8.620000 2.800000 1.470000
v 8.760000 2.800000 1.470000
v 8.760000 2.800000 2.020000
f 833 836 835 834
f 837 838 839 840
f 833 834 838 837
f 834 835 839 838
f 835 836 840 839
f 836 833 837 840
g wall_105
v 8.775000 0.000000 2.740000
v 8.775000 0.000000 2.230000
v 8.915000 0.000000 2.230000
v 8.915000 0.000000 2.740000
v 8.775000 2.800000 2.740000
v 8.775000 2.800000 2.230000
v 8.915000 2.800000 2.230000
v 8.915000 2.800000 2.740000
f 841 844 843 842
f 845 846 847 848
f 841 842 846 845
f 842 843 847 846
f 843 844 848 847
f 844 841 845 848
g wall_106
v 8.825000 0.000000 3.140000
v 8.825000 0.000000 2.620000
v 8.965000 0.000000 2.620000
v 8.965000 0.000000 3.140000
v 8.825000 2.800000 3.140000
v 8.825000 2.800000 2.620000
v 8.965000 2.800000 2.620000
v 8.965000 2.800000 3.140000
f 849 852 851 850
f 853 854 855 856
f 849 850 854 853
f 850 851 855 854
f 851 852 856 855
f 852 849 853 856
g door_lintel_1_part_0
v 2.659900 2.100000 3.766255
v 2.689900 2.100000 4.326255
v 2.550100 2.100000 4.333745
v 2.520100 2.100000 3.773745
v 2.659900 2.800000 3.766255
v 2.689900 2.800000 4.326255
v 2.550100 2.800000 4.333745
v 2.520100 2.800000 3.773745
f 857 860 859 858
f 861 862 863 864
f 857 858 862 861
f 858 859 863 862
f 859 860 864 863
f 860 857 861 864
g door_lintel_2_part_0
v 4.949988 2.100000 7.311296
v 4.939988 2.100000 7.851296
v 4.800012 2.100000 7.848704
v 4.810012 2.100000 7.308704
v 4.949988 2.800000 7.311296
v 4.939988 2.800000 7.851296
v 4.800012 2.800000 7.848704
v 4.810012 2.800000 7.308704
f 865 868 867 866
f 869 870 871 872
f 865 866 870 869
f 866 867 871 870
f 867 868 872 871
f 868 865 869 872
g door_lintel_3_part_0
v 3.669497 2.100000 6.919497
v 3.209497 2.100000 7.379497
v 3.110503 2.100000 7.280503
v 3.570503 2.100000 6.820503
v 3.669497 2.800000 6.919497
v 3.209497 2.800000 7.379497
v 3.110503 2.800000 7.280503
v 3.570503 2.800000 6.820503
f 873 876 875 874
f 877 878 879 880
f 873 874 878 877
f 874 875 879 878
f 875 876 880 879
f 876 873 877 880
g door_lintel_4_part_0
v 8.560000 2.100000 7.370000
v 8.000000 2.100000 7.370000
v 8.000000 2.100000 7.230000
v 8.560000 2.100000 7.230000
v 8.560000 2.800000 7.370000
v 8.000000 2.800000 7.370000
v 8.000000 2.800000 7.230000
v 8.560000 2.800000 7.230000
f 881 884 883 882
f 885 886 887 888
f 881 882 886 885
f 882 883 887 886
f 883 884 888 887
f 884 881 885 888
g door_lintel_5_part_0
v 4.050012 2.100000 3.351296
v 4.040012 2.100000 2.811296
v 4.179988 2.100000 2.808704
v 4.189988 2.100000 3.348704
v 4.050012 2.800000 3.351296
v 4.040012 2.800000 2.811296
v 4.179988 2.800000 2.808704
v 4.189988 2.800000 3.348704
f 889 892 891 890
f 893 894 895 896
f 889 890 894 893
f 890 891 895 894
f 891 892 896 895
f 892 889 893 896
g door_lintel_6_part_0
v 6.899903 2.100000 0.836321
v 6.919903 2.100000 1.216321
v 6.780097 2.100000 1.223679
v 6.760097 2.100000 0.843679
v 6.899903 2.800000 0.836321
v 6.919903 2.800000 1.216321
v 6.780097 2.800000 1.223679
v 6.760097 2.800000 0.843679
f 897 900 899 898
f 901 902 903 904
f 897 898 902 901
f 898 899 903 902
f 899 900 904 903
f 900 897 901 904
g door_lintel_7_part_0
v 6.899903 2.100000 0.316321
v 6.919903 2.100000 0.696321
v 6.780097 2.100000 0.703679
v 6.760097 2.100000 0.323679
v 6.899903 2.800000 0.316321
v 6.919903 2.800000 0.696321
v 6.780097 2.800000 0.703679
v 6.760097 2.800000 0.323679
f 905 908 907 906
f 909 910 911 912
f 905 906 910 909
f 906 907 911 910
f 907 908 912 911
f 908 905 909 912
g door_lintel_8_part_0
v 8.690000 2.100000 1.330000
v 8.090000 2.100000 1.330000
v 8.090000 2.100000 1.190000
v 8.690000 2.100000 1.190000
v 8.690000 2.800000 1.330000
v 8.090000 2.800000 1.330000
v 8.090000 2.800000 1.190000
v 8.690000 2.800000 1.190000
f 913 916 915 914
f 917 918 919 920
f 913 914 918 917
f 914 915 919 918
f 915 916 920 919
f 916 913 917 920
g ocr_dining_table_1
v 5.450000 0.000000 7.360000
v 8.250000 0.000000 7.360000
v 8.250000 0.000000 10.160000
v 5.450000 0.000000 10.160000
v 5.450000 0.750000 7.360000
v 8.250000 0.750000 7.360000
v 8.250000 0.750000 10.160000
v 5.450000 0.750000 10.160000
f 921 924 923 922
f 925 926 927 928
f 921 922 926 925
f 922 923 927 926
f 923 924 928 927
f 924 921 925 928
g ocr_dining_table_2
v 2.875000 0.000000 7.450000
v 4.675000 0.000000 7.450000
v 4.675000 0.000000 9.250000
v 2.875000 0.000000 9.250000
v 2.875000 0.750000 7.450000
v 4.675000 0.750000 7.450000
v 4.675000 0.750000 9.250000
v 2.875000 0.750000 9.250000
f 929 932 931 930
f 933 934 935 936
f 929 930 934 933
f 930 931 935 934
f 931 932 936 935
f 932 929 933 936
g ocr_dining_table_3
v 1.275000 0.000000 6.505000
v 2.675000 0.000000 6.505000
v 2.675000 0.000000 7.305000
v 1.275000 0.000000 7.305000
v 1.275000 0.750000 6.505000
v 2.675000 0.750000 6.505000
v 2.675000 0.750000 7.305000
v 1.275000 0.750000 7.305000
f 937 940 939 938
f 941 942 943 944
f 937 938 942 941
f 938 939 943 942
f 939 940 944 943
f 940 937 941 944
g ocr_dining_table_4
v 4.045000 0.000000 3.995000
v 5.845000 0.000000 3.995000
v 5.845000 0.000000 5.795000
v 4.045000 0.000000 5.795000
v 4.045000 0.750000 3.995000
v 5.845000 0.750000 3.995000
v 5.845000 0.750000 5.795000
v 4.045000 0.750000 5.795000
f 945 948 947 946
f 949 950 951 952
f 945 946 950 949
f 946 947 951 950
f 947 948 952 951
f 948 945 949 952
g ocr_dining_table_5
v 0.565000 0.000000 3.790000
v 2.365000 0.000000 3.790000
v 2.365000 0.000000 5.590000
v 0.565000 0.000000 5.590000
v 0.565000 0.750000 3.790000
v 2.365000 0.750000 3.790000
v 2.365000 0.750000 5.590000
v 0.565000 0.750000 5.590000
f 953 956 955 954
f 957 958 959 960
f 953 954 958 957
f 954 955 959 958
f 955 956 960 959
f 956 953 957 960
g ocr_dining_table_6
v 6.655000 0.000000 4.425000
v 8.055000 0.000000 4.425000
v 8.055000 0.000000 5.225000
v 6.655000 0.000000 5.225000
v 6.655000 0.750000 4.425000
v 8.055000 0.750000 4.425000
v 8.055000 0.750000 5.225000
v 6.655000 0.750000 5.225000
f 961 964 963 962
f 965 966 967 968
f 961 962 966 965
f 962 963 967 966
f 963 964 968 967
f 964 961 965 968
g ocr_dining_table_7
v 5.115000 0.000000 2.030000
v 5.715000 0.000000 2.030000
v 5.715000 0.000000 2.630000
v 5.115000 0.000000 2.630000
v 5.115000 0.750000 2.030000
v 5.715000 0.750000 2.030000
v 5.715000 0.750000 2.630000
v 5.115000 0.750000 2.630000
f 969 972 971 970
f 973 974 975 976
f 969 970 974 973
f 970 971 975 974
f 971 972 976 975
f 972 969 973 976
g ocr_dining_table_8
v 6.780000 0.000000 1.480000
v 8.580000 0.000000 1.480000
v 8.580000 0.000000 3.280000
v 6.780000 0.000000 3.280000
v 6.780000 0.750000 1.480000
v 8.580000 0.750000 1.480000
v 8.580000 0.750000 3.280000
v 6.780000 0.750000 3.280000
f 977 980 979 978
f 981 982 983 984
f 977 978 982 981
f 978 979 983 982
f 979 980 984 983
f 980 977 981 984
