# 3DBuildingModelingEngine JSON to OBJ
# Units: metres
o room_layout
g floor
v 0.000000 -0.050000 0.000000
v 8.460000 -0.050000 0.000000
v 8.460000 -0.050000 10.480000
v 0.000000 -0.050000 10.480000
v 0.000000 0.000000 0.000000
v 8.460000 0.000000 0.000000
v 8.460000 0.000000 10.480000
v 0.000000 0.000000 10.480000
f 1 4 3 2
f 5 6 7 8
f 1 2 6 5
f 2 3 7 6
f 3 4 8 7
f 4 1 5 8
g wall_1
v 0.440000 0.000000 9.400000
v 3.470000 0.000000 9.400000
v 3.470000 0.000000 9.680000
v 0.440000 0.000000 9.680000
v 0.440000 2.800000 9.400000
v 3.470000 2.800000 9.400000
v 3.470000 2.800000 9.680000
v 0.440000 2.800000 9.680000
f 9 12 11 10
f 13 14 15 16
f 9 10 14 13
f 10 11 15 14
f 11 12 16 15
f 12 9 13 16
g wall_2
v 0.120000 0.000000 9.710000
v 0.120000 0.000000 9.150000
v 0.400000 0.000000 9.150000
v 0.400000 0.000000 9.710000
v 0.120000 2.800000 9.710000
v 0.120000 2.800000 9.150000
v 0.400000 2.800000 9.150000
v 0.400000 2.800000 9.710000
f 17 20 19 18
f 21 22 23 24
f 17 18 22 21
f 18 19 23 22
f 19 20 24 23
f 20 17 21 24
g wall_3
v 5.240000 0.000000 9.390000
v 8.320000 0.000000 9.390000
v 8.320000 0.000000 9.670000
v 5.240000 0.000000 9.670000
v 5.240000 2.800000 9.390000
v 8.320000 2.800000 9.390000
v 8.320000 2.800000 9.670000
v 5.240000 2.800000 9.670000
f 25 28 27 26
f 29 30 31 32
f 25 26 30 29
f 26 27 31 30
f 27 28 32 31
f 28 25 29 32
g wall_4
v 0.120000 0.000000 8.300000
v 0.120000 0.000000 0.140000
v 0.400000 0.000000 0.140000
v 0.400000 0.000000 8.300000
v 0.120000 2.800000 8.300000
v 0.120000 2.800000 0.140000
v 0.400000 2.800000 0.140000
v 0.400000 2.800000 8.300000
f 33 36 35 34
f 37 38 39 40
f 33 34 38 37
f 34 35 39 38
f 35 36 40 39
f 36 33 37 40
g wall_5
v 0.420000 0.000000 0.145000
v 8.310000 0.000000 0.145000
v 8.310000 0.000000 0.425000
v 0.420000 0.000000 0.425000
v 0.420000 2.800000 0.145000
v 8.310000 2.800000 0.145000
v 8.310000 2.800000 0.425000
v 0.420000 2.800000 0.425000
f 41 44 43 42
f 45 46 47 48
f 41 42 46 45
f 42 43 47 46
f 43 44 48 47
f 44 41 45 48
g wall_6
v 8.020000 0.000000 9.380000
v 8.020000 0.000000 0.430000
v 8.300000 0.000000 0.430000
v 8.300000 0.000000 9.380000
v 8.020000 2.800000 9.380000
v 8.020000 2.800000 0.430000
v 8.300000 2.800000 0.430000
v 8.300000 2.800000 9.380000
f 49 52 51 50
f 53 54 55 56
f 49 50 54 53
f 50 51 55 54
f 51 52 56 55
f 52 49 53 56
g wall_7
v 0.410000 0.000000 3.895000
v 0.590000 0.000000 3.895000
v 0.590000 0.000000 4.175000
v 0.410000 0.000000 4.175000
v 0.410000 2.800000 3.895000
v 0.590000 2.800000 3.895000
v 0.590000 2.800000 4.175000
v 0.410000 2.800000 4.175000
f 57 60 59 58
f 61 62 63 64
f 57 58 62 61
f 58 59 63 62
f 59 60 64 63
f 60 57 61 64
g wall_8
v 1.460000 0.000000 3.880000
v 7.980000 0.000000 3.880000
v 7.980000 0.000000 4.160000
v 1.460000 0.000000 4.160000
v 1.460000 2.800000 3.880000
v 7.980000 2.800000 3.880000
v 7.980000 2.800000 4.160000
v 1.460000 2.800000 4.160000
f 65 68 67 66
f 69 70 71 72
f 65 66 70 69
f 66 67 71 70
f 67 68 72 71
f 68 65 69 72
g door_lintel_1_part_0
v 3.506286 2.100000 9.270141
v 4.396286 2.100000 9.310141
v 4.383714 2.100000 9.589859
v 3.493714 2.100000 9.549859
v 3.506286 2.800000 9.270141
v 4.396286 2.800000 9.310141
v 4.383714 2.800000 9.589859
v 3.493714 2.800000 9.549859
f 73 76 75 74
f 77 78 79 80
f 73 74 78 77
f 74 75 79 78
f 75 76 80 79
f 76 73 77 80
g door_lintel_2_part_0
v 5.243255 2.100000 9.549962
v 4.383255 2.100000 9.569962
v 4.376745 2.100000 9.290038
v 5.236745 2.100000 9.270038
v 5.243255 2.800000 9.549962
v 4.383255 2.800000 9.569962
v 4.376745 2.800000 9.290038
v 5.236745 2.800000 9.270038
f 81 84 83 82
f 85 86 87 88
f 81 82 86 85
f 82 83 87 86
f 83 84 88 87
f 84 81 85 88
g door_lintel_3_part_0
v 0.140000 2.100000 8.990000
v 1.060000 2.100000 8.990000
v 1.060000 2.100000 9.270000
v 0.140000 2.100000 9.270000
v 0.140000 2.800000 8.990000
v 1.060000 2.800000 8.990000
v 1.060000 2.800000 9.270000
v 0.140000 2.800000 9.270000
f 89 92 91 90
f 93 94 95 96
f 89 90 94 93
f 90 91 95 94
f 91 92 96 95
f 92 89 93 96
g door_lintel_4_part_0
v 0.621667 2.100000 3.980010
v 1.461667 2.100000 3.990010
v 1.458333 2.100000 4.269990
v 0.618333 2.100000 4.259990
v 0.621667 2.800000 3.980010
v 1.461667 2.800000 3.990010
v 1.458333 2.800000 4.269990
v 0.618333 2.800000 4.259990
f 97 100 99 98
f 101 102 103 104
f 97 98 102 101
f 98 99 103 102
f 99 100 104 103
f 100 97 101 104
g ocr_dining_table_1
v 1.525000 0.000000 7.425000
v 2.925000 0.000000 7.425000
v 2.925000 0.000000 8.225000
v 1.525000 0.000000 8.225000
v 1.525000 0.750000 7.425000
v 2.925000 0.750000 7.425000
v 2.925000 0.750000 8.225000
v 1.525000 0.750000 8.225000
f 105 108 107 106
f 109 110 111 112
f 105 106 110 109
f 106 107 111 110
f 107 108 112 111
f 108 105 109 112
g ocr_dining_table_2
v 4.065000 0.000000 7.410000
v 5.465000 0.000000 7.410000
v 5.465000 0.000000 8.210000
v 4.065000 0.000000 8.210000
v 4.065000 0.750000 7.410000
v 5.465000 0.750000 7.410000
v 5.465000 0.750000 8.210000
v 4.065000 0.750000 8.210000
f 113 116 115 114
f 117 118 119 120
f 113 114 118 117
f 114 115 119 118
f 115 116 120 119
f 116 113 117 120
g ocr_dining_table_3
v 6.475000 0.000000 7.410000
v 7.875000 0.000000 7.410000
v 7.875000 0.000000 8.210000
v 6.475000 0.000000 8.210000
v 6.475000 0.750000 7.410000
v 7.875000 0.750000 7.410000
v 7.875000 0.750000 8.210000
v 6.475000 0.750000 8.210000
f 121 124 123 122
f 125 126 127 128
f 121 122 126 125
f 122 123 127 126
f 123 124 128 127
f 124 121 125 128
g ocr_dining_table_4
v 1.565000 0.000000 5.585000
v 2.965000 0.000000 5.585000
v 2.965000 0.000000 6.385000
v 1.565000 0.000000 6.385000
v 1.565000 0.750000 5.585000
v 2.965000 0.750000 5.585000
v 2.965000 0.750000 6.385000
v 1.565000 0.750000 6.385000
f 129 132 131 130
f 133 134 135 136
f 129 130 134 133
f 130 131 135 134
f 131 132 136 135
f 132 129 133 136
g ocr_dining_table_5
v 4.065000 0.000000 5.575000
v 5.465000 0.000000 5.575000
v 5.465000 0.000000 6.375000
v 4.065000 0.000000 6.375000
v 4.065000 0.750000 5.575000
v 5.465000 0.750000 5.575000
v 5.465000 0.750000 6.375000
v 4.065000 0.750000 6.375000
f 137 140 139 138
f 141 142 143 144
f 137 138 142 141
f 138 139 143 142
f 139 140 144 143
f 140 137 141 144
g ocr_counter_6
v 2.960000 0.000000 3.140000
v 4.460000 0.000000 3.140000
v 4.460000 0.000000 3.840000
v 2.960000 0.000000 3.840000
v 2.960000 0.850000 3.140000
v 4.460000 0.850000 3.140000
v 4.460000 0.850000 3.840000
v 2.960000 0.850000 3.840000
f 145 148 147 146
f 149 150 151 152
f 145 146 150 149
f 146 147 151 150
f 147 148 152 151
f 148 145 149 152
g ocr_refrigerator_7
v 4.701741 0.000000 3.101628
v 5.901289 0.000000 3.068674
v 5.923259 0.000000 3.868372
v 4.723711 0.000000 3.901326
v 4.701741 1.800000 3.101628
v 5.901289 1.800000 3.068674
v 5.923259 1.800000 3.868372
v 4.723711 1.800000 3.901326
f 153 156 155 154
f 157 158 159 160
f 153 154 158 157
f 154 155 159 158
f 155 156 160 159
f 156 153 157 160
